<?xml version="1.0" encoding="iso-8859-1"?>
<!-- Generator: Adobe Illustrator 19.0.0, SVG Export Plug-In . SVG Version: 6.00 Build 0)  -->
<svg xmlns="http://www.w3.org/2000/svg" xmlns:xlink="http://www.w3.org/1999/xlink" version="1.1" id="Capa_1" x="0px" y="0px" viewBox="0 0 496 496" style="enable-background:new 0 0 496 496;" xml:space="preserve" width="512px" height="512px">
<g>
	<g>
		<g>
			<path d="M408,336c48.52,0,88-39.48,88-88c0-27.616-7.504-54.728-21.72-78.416l-47.304-78.84C423,84.12,415.728,80,408,80     c-7.728,0-15,4.12-18.976,10.744L344,165.784V120c0-33.032-25.16-60.304-57.32-63.656C278.944,23.8,249.408,0,215.432,0H200     C120.6,0,56,64.6,56,144v72c0,2.224,0.304,4.376,0.656,6.496H56V364.2c-15.016,12.056-26.552,28.352-32.424,47.144L0,478.64V496     h312h64h24v-17.36L392.064,456H416v-64h-40v-40h-32v-43.792C360.064,325.272,382.776,336,408,336z M72,144     c0-70.576,57.424-128,128-128h15.432c28.296,0,52.656,21.128,56.648,49.136L273.064,72H280c26.472,0,48,21.528,48,48v64.056     c-4.688-3.52-10.136-5.96-16-7.152V152c0-17.648-14.352-32-32-32h-2.128l-1.84,1.056C240.6,141.296,200.304,152,159.504,152     H131.8c-17.152,0-32,9.944-39.184,24.344c-7.712,0.664-14.768,3.44-20.616,7.864V144z M256,328.848     c26.88-15.608,46.72-41.992,53.456-73.264c3.736-0.512,7.36-1.52,10.776-3.04c0.584,11.336,3.28,22.096,7.768,31.904V352h-3.256     c-8.688-4.144-17.896-7.032-27.432-8.504L256,337.136V328.848z M200,328c-52.936,0-96-43.064-96-96v-36.2     c0-15.328,12.472-27.8,27.8-27.8h27.704c42.8,0,85.064-11.016,122.408-31.888C289.832,137.056,296,143.824,296,152v80     C296,284.936,252.936,328,200,328z M311.664,238.6c0.128-2.192,0.336-4.368,0.336-6.6v-38.592     c6.128,2.168,11.152,6.76,13.864,12.848c-2.48,8.712-4.128,17.64-5.032,26.68C318.224,235.528,315.096,237.44,311.664,238.6z      M88.12,193.44C88.08,194.224,88,195,88,195.8V232c0,2.24,0.208,4.424,0.336,6.632C78.872,235.416,72,226.536,72,216     C72,205.544,78.768,196.72,88.12,193.44z M72,247.792c5.312,4.024,11.608,6.688,18.512,7.648     c6.704,31.328,26.568,57.776,53.488,73.4v8.288l-41.312,6.352c-10.864,1.672-21.2,5.208-30.688,10.2V247.792z M192,480H97.064     l6.872-55.008l-15.872-1.984L80.936,480H16.48l22.28-63.624c9.352-29.896,35.4-52.304,66.368-57.072l41.808-6.432L192,465.544     V480z M160,342.456v-5.968c12.44,4.784,25.896,7.512,40,7.512s27.56-2.728,40-7.512v5.968l-40,100L160,342.456z M312,480H208     v-14.456l45.064-112.672l41.808,6.432c5.88,0.904,11.6,2.48,17.128,4.608V392h-40v64h40V480z M376,480v-21.472L383.52,480H376z      M360,368v40h40v32h-40v40h-32v-40h-40v-32h40v-40H360z M336,248c0-24.72,6.72-48.984,19.44-70.176l47.304-78.848     C403.84,97.144,405.856,96,408,96c2.144,0,4.16,1.144,5.256,2.976l47.304,78.84C473.28,199.016,480,223.28,480,248     c0,39.704-32.296,72-72,72C368.296,320,336,287.704,336,248z" fill="#888e90"/>
			<path d="M374.32,292.72l9.64-12.768C373.824,272.288,368,260.648,368,248c0-18.912,5.144-37.496,14.872-53.72l-13.72-8.232     C357.928,204.768,352,226.184,352,248C352,265.712,360.136,282.008,374.32,292.72z" fill="#888e90"/>
			<path d="M408,288c-4.568,0-9.064-0.768-13.336-2.28l-5.344,15.08c6,2.12,12.28,3.2,18.68,3.2V288z" fill="#888e90"/>
			<path d="M200,280c-26.472,0-48-21.528-48-48h-16c0,35.288,28.712,64,64,64c35.288,0,64-28.712,64-64h-16     C248,258.472,226.472,280,200,280z" fill="#888e90"/>
			<rect x="136" y="184" width="16" height="16" fill="#888e90"/>
			<rect x="248" y="184" width="16" height="16" fill="#888e90"/>
		</g>
	</g>
</g>
<g>
</g>
<g>
</g>
<g>
</g>
<g>
</g>
<g>
</g>
<g>
</g>
<g>
</g>
<g>
</g>
<g>
</g>
<g>
</g>
<g>
</g>
<g>
</g>
<g>
</g>
<g>
</g>
<g>
</g>
</svg>
